<svg width="134" height="134" viewBox="0 0 134 134" fill="none" xmlns="http://www.w3.org/2000/svg">
<path d="M114.033 19.5905C110.833 21.1905 107.223 22.2405 103.763 23.2605C82.7031 29.5205 61.2931 34.8105 40.1531 40.7905C27.3031 44.4305 14.5031 48.2905 1.66309 51.9805C4.16309 40.4905 9.74309 29.6805 17.8631 21.0905C30.0131 18.1105 42.0431 14.6305 54.1731 11.5705C65.3631 8.75046 76.7731 6.46046 87.8131 3.22046C97.9331 6.53046 106.543 12.1505 114.023 19.5805L114.033 19.5905Z" fill="#FEDF40"/>
<path d="M129.393 43.3006C126.543 45.5106 123.103 46.9106 119.793 48.3106C109.343 52.7306 97.6631 56.5506 86.9031 60.3306C62.0831 69.0406 34.8731 78.9206 9.6031 85.7106C7.5731 86.2606 5.4231 86.8206 3.3431 86.8806C-0.436902 74.7906 -1.0369 64.4106 1.6731 51.9806C14.5131 48.2906 27.3031 44.4306 40.1631 40.7906C61.3131 34.8106 82.7131 29.5206 103.773 23.2606C107.233 22.2306 110.843 21.1906 114.043 19.5906C121.313 26.8106 125.873 33.6306 129.403 43.3006H129.393Z" fill="black"/>
<path d="M87.8231 3.2305C76.7731 6.4705 65.3731 8.7605 54.1831 11.5805C42.0531 14.6405 30.0231 18.1105 17.8731 21.1005C35.1531 2.2905 63.5131 -4.7195 87.8231 3.2305Z" fill="black"/>
<path d="M133.233 73.1905C130.493 76.6105 126.013 78.8005 122.133 80.7005C99.4531 91.8305 67.6931 101.551 43.1631 108.421C38.8731 109.621 22.5531 114.401 19.2031 113.431C18.2631 113.161 15.4731 109.651 14.6931 108.671C9.49308 102.101 5.77308 94.6705 3.34308 86.8805C5.42308 86.8205 7.57308 86.2605 9.60308 85.7105C34.8831 78.9305 62.0931 69.0405 86.9031 60.3305C97.6631 56.5505 109.353 52.7305 119.793 48.3105C123.103 46.9105 126.553 45.5105 129.393 43.3005C132.943 53.0405 134.313 62.5505 133.233 73.1905Z" fill="#FEDF40"/>
<path d="M114.363 113.43C108.093 117.96 91.5431 123.3 83.7231 125.79C76.5231 128.08 63.5131 132.29 56.2531 132.47C44.9231 132.75 28.1931 122.42 20.1031 114.77C19.7431 114.43 19.1231 114.01 19.1831 113.43C22.5331 114.4 38.8531 109.62 43.1431 108.42C67.6831 101.55 99.4431 91.8404 122.113 80.7004C126.003 78.7904 130.473 76.6004 133.213 73.1904C131.993 85.2404 124.533 106.08 114.343 113.43H114.363Z" fill="black"/>
<path d="M56.2631 132.46C63.5131 132.28 76.5231 128.07 83.7331 125.78C91.5531 123.3 108.093 117.95 114.373 113.42C112.783 115.37 110.483 117.34 108.443 118.93C93.6431 130.52 76.4131 135 57.6831 132.96C57.4231 132.93 56.2231 132.85 56.2631 132.46Z" fill="#FEDF40"/>
</svg>
