<svg width="74" height="74" viewBox="0 0 74 74" fill="none" xmlns="http://www.w3.org/2000/svg">
<path d="M59.215 7.50944C68.7928 14.8587 70.4905 26.7923 62.721 36.2706C53.204 47.889 34.0815 50.5102 20.3895 46.0088C7.9029 41.9056 -2.01224 30.0937 5.84578 17.0209C17.6245 -1.22232 41.746 -5.45272 59.215 7.50944ZM34.3304 0.674444C24.7083 1.08919 8.59968 8.68178 13.0457 20.6651C18.454 35.2254 49.604 32.5213 53.3035 17.1592C56.0408 5.80069 43.7644 0.270759 34.3304 0.674444Z" fill="#FEDF40"/>
<path d="M73.8039 35.2088C73.8647 51.7654 57.6786 61.0833 43.0133 62.8142C26.0475 64.816 2.08638 58.4235 0.0292506 38.4383C-0.258305 30.4973 1.56657 23.6457 5.84672 17.0153C-2.01129 30.0881 7.89832 41.9056 20.3904 46.0088C34.0825 50.5046 53.2049 47.8834 62.7219 36.2706C70.4915 26.7923 68.7883 14.8587 59.216 7.5094C67.7431 13.8356 73.7652 24.3978 73.8039 35.2088Z" fill="black"/>
<path d="M64.3865 61.6143C58.0658 68.0733 48.5267 71.2751 39.5959 71.6788C28.5084 72.182 16.5306 69.1682 8.80528 60.8788C3.38596 54.442 0.333442 46.866 0.0292969 38.4384C2.08643 58.4235 26.0476 64.8161 43.0078 62.8143C57.6787 61.0834 73.8592 51.7655 73.7984 35.2089C74.0749 35.1702 73.9754 35.4577 73.9809 35.6236C74.2906 44.7757 70.8067 55.0448 64.381 61.6143H64.3865Z" fill="#FEDF40"/>
<path d="M64.3859 61.6142C49.7648 78.4529 23.1161 77.8778 8.80469 60.8732C16.53 69.1626 28.5078 72.1819 39.5953 71.6732C48.5261 71.2695 58.0652 68.0732 64.3859 61.6087V61.6142Z" fill="black"/>
<path d="M34.3315 0.67446C43.7656 0.270775 56.042 5.79517 53.3047 17.1537C49.6052 32.5213 18.4551 35.2199 13.0469 20.6596C8.60081 8.6818 24.7095 1.0892 34.3315 0.67446Z" fill="black"/>
</svg>
